HIERARCHY
ROOT Hips
{
  OFFSET 0 0 0
  CHANNELS 6 Xposition Yposition Zposition Zrotation Yrotation Xrotation
  JOINT LeftThigh
  {
    OFFSET 8.409438 0 -5.917753
    CHANNELS 3 Zrotation Yrotation Xrotation
    JOINT LeftLeg
    {
      OFFSET 0 0 -42.358652
      CHANNELS 3 Zrotation Yrotation Xrotation
      JOINT LeftFoot
      {
        OFFSET 0 0 -39.357303
        CHANNELS 3 Zrotation Yrotation Xrotation
      }
    }
  }
  JOINT RightThigh
  {
    OFFSET -8.409438 0 -5.917753
    CHANNELS 3 Zrotation Yrotation Xrotation
    JOINT RightLeg
    {
      OFFSET 0 0 -42.358652
      CHANNELS 3 Zrotation Yrotation Xrotation
      JOINT RightFoot
      {
        OFFSET 0 0 -39.357303
        CHANNELS 3 Zrotation Yrotation Xrotation
      }
    }
  }
  JOINT SpineLow
  {
    OFFSET 0 0 4.719101
    CHANNELS 3 Zrotation Yrotation Xrotation
    JOINT SpineMid
    {
      OFFSET 0 0 12.899191
      CHANNELS 3 Zrotation Yrotation Xrotation
      JOINT Chest
      {
        OFFSET 0 0 12.899191
        CHANNELS 3 Zrotation Yrotation Xrotation
        JOINT LeftShoulder
        {
          OFFSET 7.550562 1.41573 9.438202
          CHANNELS 3 Zrotation Yrotation Xrotation
          JOINT LeftArm
          {
            OFFSET 9.155056 0 4.247191
            CHANNELS 3 Zrotation Yrotation Xrotation
            JOINT LeftForearm
            {
              OFFSET 0 0 25.771955
              CHANNELS 3 Zrotation Yrotation Xrotation
              JOINT LeftHand
              {
                OFFSET 0 0 25.197169
                CHANNELS 3 Zrotation Yrotation Xrotation
              }
            }
          }
        }
        JOINT RightShoulder
        {
          OFFSET -7.550562 1.41573 9.438202
          CHANNELS 3 Zrotation Yrotation Xrotation
          JOINT RightArm
          {
            OFFSET -9.155056 0 4.247191
            CHANNELS 3 Zrotation Yrotation Xrotation
            JOINT RightForearm
            {
              OFFSET 0 0 -25.771955
              CHANNELS 3 Zrotation Yrotation Xrotation
              JOINT RightHand
              {
                OFFSET 0 0 -25.197169
                CHANNELS 3 Zrotation Yrotation Xrotation
              }
            }
          }
        }
        JOINT Neck
        {
          OFFSET 0 0 15.101124
          CHANNELS 3 Zrotation Yrotation Xrotation
          JOINT Head
          {
            OFFSET 0 0 11.325843
            CHANNELS 3 Zrotation Yrotation Xrotation
            End Site
            {
              OFFSET 0 0 14.157303
            }
          }
        }
      }
    }
  }
}
MOTION
Frames: 8
Frame Time: 0.01
0.0  101.685394  0.0  -2.785595  15.290952  -96.060472  31.45923  -24.00202  -15.165491  -13.661746  14.786314  34.507177  7.592016  3.487848  5.14695  -14.914121  9.857156  -11.160308  4.293312  2.960244  29.763518  -0.117721  1.995726  -3.254317  0.002368  -1.017303  1.931692  -0.07483  -2.778844  5.282856  -0.07483  -2.778844  5.282856  -14.244033  18.875151  1.51378  99.459225  64.653874  178.62168  -34.711237  -4.063598  99.882405  71.525263  1.727318  5.13028  13.952397  -17.662603  12.101942  92.108009  62.674687  18.073544  -35.388309  -12.733921  -98.65062  73.362954  11.845565  4.845639  5.955946  1.61838  -7.208752  4.486495  1.143846  -5.422588  
0.0  101.685394  0.0  -2.747614  16.668779  -95.833094  30.975001  -23.632454  -15.978961  -13.891221  14.888175  34.925224  7.502311  3.512864  5.28247  -15.553995  10.016989  -11.33413  4.076239  3.094819  30.169297  -0.427998  1.905413  -3.305944  -0.089083  -0.983868  1.924095  -0.321759  -2.680255  5.2656  -0.321759  -2.680255  5.2656  -14.946359  18.84222  1.188556  98.501771  64.86674  178.113148  -34.839019  -5.067293  99.992055  71.894109  2.304979  5.325988  14.025185  -17.744217  11.723674  90.76435  62.957869  17.02299  -35.289617  -12.891816  -99.393206  73.764019  10.439589  5.671285  5.761515  1.493634  -7.568372  4.340181  1.049173  -5.690639  
0.0  101.685394  0.0  -2.726631  18.530333  -95.653192  30.235489  -23.267748  -16.702103  -14.203646  15.0077  35.105582  7.056349  3.431232  5.19659  -16.418645  10.211731  -11.378778  3.740798  3.310844  30.479375  -0.696327  2.011242  -3.287976  -0.241012  -0.955227  1.900546  -0.733727  -2.590191  5.206876  -0.733727  -2.590191  5.206876  -15.747911  18.986267  0.875548  97.427555  65.072417  177.507091  -34.972035  -6.047217  99.907647  72.487086  2.744916  5.672051  14.116897  -17.738282  11.462659  88.929865  63.258903  15.625889  -35.116155  -13.112699  -100.168806  74.186571  8.924998  6.648342  5.496711  1.343265  -7.847456  4.140404  0.937136  -5.897969  
0.0  101.685394  0.0  -2.730907  20.826823  -95.480886  29.303671  -22.910196  -17.381898  -14.676806  15.221202  35.018559  6.837194  3.333903  5.2261  -17.557131  10.357416  -11.329226  3.47114  3.506896  30.681646  -1.084286  2.172417  -3.236886  -0.443334  -0.928  1.851706  -1.282609  -2.500839  5.080515  -1.282609  -2.500839  5.080515  -16.600487  19.327683  0.588281  96.180127  65.210237  176.801701  -35.104759  -7.032412  99.645512  73.217596  2.990433  6.196962  14.245189  -17.686344  11.344407  86.600324  63.608432  13.893619  -34.81971  -13.550417  -101.033847  74.625539  7.305342  7.804199  5.163098  1.132099  -8.022066  3.887854  0.781522  -6.026427  
0.0  101.685394  0.0  -2.734093  23.476579  -95.363812  28.255084  -22.602459  -17.926479  -15.286058  15.522226  34.664032  6.468132  3.167827  5.124167  -18.722324  10.570509  -11.075468  2.961418  3.730009  30.733343  -1.57416  2.334286  -3.17227  -0.68445  -0.902539  1.781687  -1.936994  -2.414807  4.89718  -1.936994  -2.414807  4.89718  -17.419354  19.879455  0.411728  94.830441  65.261094  176.12732  -35.207084  -8.125905  99.277395  73.901874  3.091949  6.857009  14.454939  -17.567295  11.347338  83.726099  63.948881  11.779423  -34.34275  -14.312934  -102.16733  74.705371  5.578426  9.08349  4.773903  0.895963  -8.056819  3.592907  0.609201  -6.049927  
0.0  101.685394  0.0  -2.741229  26.429146  -95.337744  27.108544  -22.361209  -18.277332  -16.00485  15.851083  34.035762  6.180091  2.997159  5.073633  -19.722321  10.873365  -10.588443  2.07721  3.879852  30.643  -1.958479  2.59037  -3.067414  -0.946218  -0.872954  1.715037  -2.647803  -2.317232  4.723009  -2.647803  -2.317232  4.723009  -18.203912  20.44553  0.395715  93.589942  65.295005  175.768635  -35.290548  -9.388692  98.897494  74.330867  3.12021  7.577159  14.758839  -17.365108  11.346706  80.31994  64.245521  9.315291  -33.756319  -15.457174  -103.614707  74.112297  3.925842  10.472881  4.327688  0.644541  -8.003787  3.254835  0.426835  -6.007697  
0.0  101.685394  0.0  -2.751238  29.589658  -95.391471  25.879012  -22.151851  -18.426541  -16.768932  16.193247  33.151491  5.760655  2.790823  4.989507  -20.509837  11.25985  -9.918817  0.797161  4.015141  30.424965  -2.496415  2.767763  -2.977916  -1.203165  -0.831853  1.637993  -3.344469  -2.190457  4.518937  -3.34447  -2.190457  4.518937  -18.989197  21.051064  0.458927  92.542417  65.062625  175.771146  -35.35788  -10.965733  98.574131  74.287037  3.119458  8.367023  15.06299  -17.083511  11.443952  76.203239  64.465463  6.361175  -32.834691  -16.868913  -105.511372  72.887251  2.689694  12.244386  3.776829  0.356775  -7.831486  2.837737  0.219231  -5.876067  
0.0  101.685394  0.0  -2.757393  32.862594  -95.512597  24.631587  -21.95872  -18.376706  -17.62345  16.564712  32.029805  5.47002  2.553779  4.948029  -21.189428  11.674226  -9.067058  -0.759202  4.179021  30.04728  -2.947478  2.936731  -2.894808  -1.450412  -0.764365  1.55537  -4.012955  -1.994198  4.29674  -4.012955  -1.994198  4.29674  -19.593167  21.511903  0.451629  92.13651  64.285117  176.687763  -35.400395  -13.006889  98.278899  73.590084  3.084572  9.278738  15.390941  -16.764822  11.678193  71.387413  64.717971  2.948682  -31.62136  -18.410309  -107.956135  71.148996  1.873916  14.485985  3.186389  -0.026591  -7.548148  2.389896  -0.059314  -5.661156  
